<?xml version="1.0" standalone="no"?>
<!DOCTYPE svg PUBLIC "-//W3C//DTD SVG 20010904//EN"
 "http://www.w3.org/TR/2001/REC-SVG-20010904/DTD/svg10.dtd">
<svg version="1.0" xmlns="http://www.w3.org/2000/svg"
 width="512.000000pt" height="512.000000pt" viewBox="0 0 512.000000 512.000000"
 preserveAspectRatio="xMidYMid meet">
<metadata>
Created by potrace 1.14, written by Peter Selinger 2001-2017
</metadata>
<g transform="translate(0.000000,512.000000) scale(0.100000,-0.100000)"
fill="#000000" stroke="none">
<path d="M2019 5116 c-2 -2 -24 -6 -49 -9 -275 -35 -415 -193 -353 -399 41
-139 161 -235 343 -275 114 -25 430 -23 573 3 220 39 512 163 693 293 l80 57
101 -32 c581 -181 872 -517 858 -989 -12 -375 -180 -779 -425 -1015 -65 -63
-144 -132 -169 -148 -14 -9 -28 -19 -31 -23 -15 -20 -152 -99 -265 -154 -187
-91 -362 -146 -557 -176 -123 -19 -158 -46 -158 -124 0 -24 9 -42 31 -64 39
-39 74 -40 245 -6 291 59 574 179 809 344 124 86 225 177 333 300 127 144 289
448 328 616 2 6 10 37 19 69 8 33 18 76 21 95 3 20 7 43 9 51 19 71 26 316 13
420 -53 414 -317 729 -773 923 -147 62 -384 135 -530 162 -146 27 -315 51
-435 61 -41 3 -84 8 -95 10 -25 6 -611 15 -616 10z m546 -220 c114 -7 199 -15
250 -21 22 -3 60 -8 85 -11 70 -9 104 -15 108 -19 8 -7 -247 -124 -323 -149
-141 -44 -183 -52 -340 -65 -242 -19 -432 14 -498 87 -26 28 -39 80 -26 104
15 28 90 58 178 72 77 12 395 13 566 2z"/>
<path d="M755 4052 c-95 -9 -119 -50 -110 -190 16 -264 80 -468 228 -732 37
-67 136 -196 212 -278 267 -287 627 -468 984 -496 30 -3 57 -9 60 -14 3 -6 5
-153 5 -329 -2 -349 1 -369 57 -398 36 -19 63 -19 99 0 54 28 55 35 57 370 1
171 3 324 3 342 0 30 2 31 53 38 285 39 599 203 837 436 254 248 434 600 475
924 3 22 7 51 10 65 12 63 7 188 -9 212 -36 55 45 52 -1499 52 -788 1 -1445 0
-1462 -2z m2759 -227 c-1 -5 -5 -32 -8 -60 -25 -188 -98 -384 -209 -559 -71
-112 -111 -161 -214 -262 -198 -194 -456 -328 -706 -367 -116 -18 -321 -15
-417 7 -41 9 -85 19 -98 22 -77 16 -240 91 -348 160 -228 146 -409 352 -524
598 -69 147 -108 278 -125 419 l-6 57 1328 -2 c878 -2 1327 -6 1327 -13z"/>
<path d="M1587 2088 c-76 -76 -141 -182 -177 -290 -31 -94 -26 -207 15 -293
53 -112 177 -207 350 -269 162 -58 337 -90 593 -111 42 -3 93 -8 112 -10 19
-2 67 -7 105 -10 39 -3 77 -8 85 -10 8 -2 35 -7 60 -10 146 -20 324 -87 400
-153 122 -104 77 -292 -124 -517 -34 -39 -50 -80 -43 -118 5 -30 54 -74 87
-79 41 -6 76 13 128 70 143 155 233 341 234 481 1 89 -7 125 -42 198 -95 195
-391 322 -835 358 -44 3 -93 8 -110 10 -16 2 -66 7 -110 10 -44 4 -93 9 -110
11 -16 3 -45 7 -63 10 -126 16 -293 64 -383 109 -53 27 -123 86 -140 117 -39
73 -9 177 88 306 70 92 82 126 63 171 -16 40 -51 61 -100 61 -34 0 -47 -7 -83
-42z"/>
<path d="M2169 819 c-15 -17 -31 -45 -33 -62 -3 -18 -5 -138 -5 -267 1 -129 0
-244 0 -255 -1 -20 -8 -21 -172 -21 -185 -1 -210 -7 -235 -56 -24 -46 -18 -91
17 -124 l30 -29 457 -3 c412 -3 460 -1 489 14 52 27 71 98 39 146 -29 44 -64
51 -242 52 -107 0 -164 4 -164 10 -1 6 -1 124 -1 261 0 138 -5 267 -10 287
-21 80 -115 106 -170 47z"/>
</g>
</svg>
